# This file uses centimeters as units for non-parametric coordinates.

mtllib Wedge.mtl
g default
v -2.500000 -1.500000 1.500000
v 2.500000 -1.500000 1.500000
v -2.500000 1.500000 0.000000
v 2.500000 1.500000 0.000000
v -2.500000 -1.500000 -1.500000
v 2.500000 -1.500000 -1.500000
vt 0.000000 0.000000
vt 1.000000 0.000000
vt 1.333333 1.333333
vt -0.333333 1.333333
vt 1.000000 3.000000
vt 0.000000 3.000000
vt 1.000000 4.000000
vt 0.000000 4.000000
vt 2.000000 0.000000
vt -1.000000 0.000000
vn 0.000000 0.447214 0.894427
vn 0.000000 0.447214 0.894427
vn 0.000000 0.447214 0.894427
vn 0.000000 0.447214 0.894427
vn 0.000000 0.447214 -0.894427
vn 0.000000 0.447214 -0.894427
vn 0.000000 0.447214 -0.894427
vn 0.000000 0.447214 -0.894427
vn 0.000000 -1.000000 0.000000
vn 0.000000 -1.000000 0.000000
vn 0.000000 -1.000000 0.000000
vn 0.000000 -1.000000 0.000000
vn 1.000000 0.000000 0.000000
vn 1.000000 0.000000 0.000000
vn 1.000000 0.000000 0.000000
vn -1.000000 0.000000 0.000000
vn -1.000000 0.000000 0.000000
vn -1.000000 0.000000 0.000000
s 1
g Wedge:pCube1
usemtl Wedge:initialShadingGroup
f 1/1/1 2/2/2 3/4/3
f 3/4/3 2/2/2 4/3/4
s 2
f 3/4/5 4/3/6 5/6/7
f 5/6/7 4/3/6 6/5/8
s 3
f 5/6/9 6/5/10 1/8/11
f 1/8/11 6/5/10 2/7/12
s off
f 2/2/13 6/9/14 4/3/15
f 5/10/16 1/1/17 3/4/18
g default
v -2.500000 -1.500000 1.500000
v 2.500000 -1.500000 1.500000
v -2.500000 1.500000 0.000000
v 2.500000 1.500000 0.000000
v -2.500000 -1.500000 -1.500000
v 2.500000 -1.500000 -1.500000
vt 0.000000 0.000000
vt 1.000000 0.000000
vt 1.333333 1.333333
vt -0.333333 1.333333
vt 1.000000 3.000000
vt 0.000000 3.000000
vt 1.000000 4.000000
vt 0.000000 4.000000
vt 2.000000 0.000000
vt -1.000000 0.000000
vn 0.000000 0.447214 0.894427
vn 0.000000 0.447214 0.894427
vn 0.000000 0.447214 0.894427
vn 0.000000 0.447214 0.894427
vn 0.000000 0.447214 -0.894427
vn 0.000000 0.447214 -0.894427
vn 0.000000 0.447214 -0.894427
vn 0.000000 0.447214 -0.894427
vn 0.000000 -1.000000 0.000000
vn 0.000000 -1.000000 0.000000
vn 0.000000 -1.000000 0.000000
vn 0.000000 -1.000000 0.000000
vn 1.000000 0.000000 0.000000
vn 1.000000 0.000000 0.000000
vn 1.000000 0.000000 0.000000
vn -1.000000 0.000000 0.000000
vn -1.000000 0.000000 0.000000
vn -1.000000 0.000000 0.000000
s 1
g Wedge:pCube1
f 7/11/19 8/12/20 9/14/21
f 9/14/21 8/12/20 10/13/22
s 2
f 9/14/23 10/13/24 11/16/25
f 11/16/25 10/13/24 12/15/26
s 3
f 11/16/27 12/15/28 7/18/29
f 7/18/29 12/15/28 8/17/30
s off
f 8/12/31 12/19/32 10/13/33
f 11/20/34 7/11/35 9/14/36
