# This file uses centimeters as units for non-parametric coordinates.

mtllib Cup.mtl
g default
v 1.213526 -2.500000 -0.881678
v 0.463525 -2.500000 -1.426585
v -0.463526 -2.500000 -1.426585
v -1.213526 -2.500000 -0.881678
v -1.500000 -2.500000 0.000000
v -1.213526 -2.500000 0.881678
v -0.463525 -2.500000 1.426585
v 0.463526 -2.500000 1.426585
v 1.213526 -2.500000 0.881678
v 1.500000 -2.500000 0.000000
v 2.427051 -2.500000 -1.763356
v 0.927051 -2.500000 -2.853170
v -0.927051 -2.500000 -2.853170
v -2.427052 -2.500000 -1.763356
v -3.000000 -2.500000 0.000000
v -2.427051 -2.500000 1.763356
v -0.927051 -2.500000 2.853170
v 0.927051 -2.500000 2.853170
v 2.427051 -2.500000 1.763356
v 3.000000 -2.500000 0.000000
v 2.427051 2.500000 -1.763356
v 0.927051 2.500000 -2.853170
v -0.927051 2.500000 -2.853170
v -2.427052 2.500000 -1.763356
v -3.000000 2.500000 0.000000
v -2.427051 2.500000 1.763356
v -0.927051 2.500000 2.853170
v 0.927051 2.500000 2.853170
v 2.427051 2.500000 1.763356
v 3.000000 2.500000 0.000000
v 2.134059 2.500000 -1.550485
v 0.815138 2.500000 -2.508737
v -0.815138 2.500000 -2.508737
v -2.134059 2.500000 -1.550484
v -2.637842 2.500000 0.000000
v -2.134059 2.500000 1.550485
v -0.815138 2.500000 2.508737
v 0.815138 2.500000 2.508737
v 2.134059 2.500000 1.550484
v 2.637842 2.500000 0.000000
v 0.000000 -2.500000 0.000000
v 2.134059 -1.038655 -1.550485
v 0.815138 -1.038655 -2.508737
v 0.000000 -1.038655 0.000000
v -0.815138 -1.038655 -2.508737
v -2.134059 -1.038655 -1.550484
v -2.637842 -1.038655 0.000000
v -2.134059 -1.038655 1.550485
v -0.815138 -1.038655 2.508737
v 0.815138 -1.038655 2.508737
v 2.134059 -1.038655 1.550484
v 2.637842 -1.038655 0.000000
vt 0.563204 0.110329
vt 0.524142 0.081949
vt 0.475858 0.081949
vt 0.436796 0.110329
vt 0.421875 0.156250
vt 0.436796 0.202171
vt 0.475858 0.230551
vt 0.524142 0.230551
vt 0.563204 0.202171
vt 0.578125 0.156250
vt 0.626409 0.064409
vt 0.548284 0.007647
vt 0.451716 0.007647
vt 0.373591 0.064409
vt 0.343750 0.156250
vt 0.373591 0.248091
vt 0.451716 0.304853
vt 0.548284 0.304853
vt 0.626409 0.248091
vt 0.656250 0.156250
vt 0.375000 0.312500
vt 0.400000 0.312500
vt 0.425000 0.312500
vt 0.450000 0.312500
vt 0.475000 0.312500
vt 0.500000 0.312500
vt 0.525000 0.312500
vt 0.550000 0.312500
vt 0.575000 0.312500
vt 0.600000 0.312500
vt 0.625000 0.312500
vt 0.375000 0.688440
vt 0.400000 0.688440
vt 0.425000 0.688440
vt 0.450000 0.688440
vt 0.475000 0.688440
vt 0.500000 0.688440
vt 0.525000 0.688440
vt 0.550000 0.688440
vt 0.575000 0.688440
vt 0.600000 0.688440
vt 0.625000 0.688440
vt 0.626409 0.751909
vt 0.548284 0.695147
vt 0.451716 0.695147
vt 0.373591 0.751909
vt 0.343750 0.843750
vt 0.373591 0.935591
vt 0.451716 0.992353
vt 0.548284 0.992353
vt 0.626409 0.935591
vt 0.656250 0.843750
vt 0.563204 0.797829
vt 0.524142 0.769449
vt 0.475858 0.769449
vt 0.436796 0.797829
vt 0.421875 0.843750
vt 0.436796 0.889671
vt 0.475858 0.918051
vt 0.524142 0.918051
vt 0.563204 0.889671
vt 0.578125 0.843750
vt 0.500000 0.150000
vt 0.500000 0.837500
vt 0.563204 0.889671
vt 0.524142 0.918051
vt 0.475858 0.918051
vt 0.436796 0.889671
vt 0.421875 0.843750
vt 0.436796 0.797829
vt 0.475858 0.769449
vt 0.524142 0.769449
vt 0.563204 0.797829
vt 0.578125 0.843750
vn 0.000000 -1.000000 -0.000000
vn 0.000000 -1.000000 -0.000000
vn 0.000000 -1.000000 0.000000
vn 0.000000 -1.000000 0.000000
vn 0.000000 -1.000000 0.000000
vn 0.000000 -1.000000 0.000000
vn 0.000000 -1.000000 0.000000
vn 0.000000 -1.000000 0.000000
vn 0.000000 -1.000000 -0.000000
vn 0.000000 -1.000000 0.000000
vn 0.000000 -1.000000 -0.000000
vn 0.000000 -1.000000 0.000000
vn 0.000000 -1.000000 0.000000
vn 0.000000 -1.000000 0.000000
vn 0.000000 -1.000000 0.000000
vn 0.000000 -1.000000 0.000000
vn 0.000000 -1.000000 0.000000
vn 0.000000 -1.000000 0.000000
vn 0.000000 -1.000000 0.000000
vn 0.000000 -1.000000 0.000000
vn 0.587785 0.000000 -0.809017
vn 0.587785 0.000000 -0.809017
vn 0.587785 0.000000 -0.809017
vn 0.587785 0.000000 -0.809017
vn -0.000000 0.000000 -1.000000
vn -0.000000 0.000000 -1.000000
vn -0.000000 0.000000 -1.000000
vn 0.000000 0.000000 -1.000000
vn -0.587785 0.000000 -0.809017
vn -0.587785 0.000000 -0.809017
vn -0.587785 0.000000 -0.809017
vn -0.587785 0.000000 -0.809017
vn -0.951057 0.000000 -0.309017
vn -0.951057 0.000000 -0.309017
vn -0.951057 0.000000 -0.309017
vn -0.951057 0.000000 -0.309017
vn -0.951057 0.000000 0.309017
vn -0.951056 0.000000 0.309017
vn -0.951056 0.000000 0.309017
vn -0.951057 0.000000 0.309017
vn -0.587785 0.000000 0.809017
vn -0.587785 0.000000 0.809017
vn -0.587785 0.000000 0.809017
vn -0.587785 0.000000 0.809017
vn 0.000000 0.000000 1.000000
vn 0.000000 0.000000 1.000000
vn 0.000000 0.000000 1.000000
vn 0.000000 0.000000 1.000000
vn 0.587785 0.000000 0.809017
vn 0.587785 0.000000 0.809017
vn 0.587785 0.000000 0.809017
vn 0.587785 0.000000 0.809017
vn 0.951057 0.000000 0.309017
vn 0.951057 0.000000 0.309017
vn 0.951057 0.000000 0.309017
vn 0.951057 0.000000 0.309017
vn 0.951057 0.000000 -0.309017
vn 0.951057 0.000000 -0.309017
vn 0.951057 0.000000 -0.309017
vn 0.951057 0.000000 -0.309017
vn 0.000000 1.000000 -0.000000
vn 0.000000 1.000000 0.000000
vn 0.000000 1.000000 -0.000000
vn 0.000000 1.000000 0.000000
vn 0.000000 1.000000 -0.000000
vn 0.000000 1.000000 -0.000000
vn 0.000000 1.000000 0.000000
vn 0.000000 1.000000 0.000000
vn 0.000000 1.000000 0.000000
vn 0.000000 1.000000 0.000000
vn 0.000000 1.000000 0.000000
vn 0.000000 1.000000 0.000000
vn 0.000000 1.000000 0.000000
vn 0.000000 1.000000 0.000000
vn 0.000000 1.000000 -0.000000
vn 0.000000 1.000000 -0.000000
vn 0.000000 1.000000 0.000000
vn 0.000000 1.000000 0.000000
vn 0.000000 1.000000 0.000000
vn 0.000000 1.000000 0.000000
vn 0.000000 -1.000000 -0.000000
vn 0.000000 1.000000 0.000000
vn 0.000000 1.000000 0.000000
vn -0.000000 1.000000 0.000000
vn 0.000000 1.000000 0.000000
vn -0.000000 1.000000 0.000000
vn -0.000000 1.000000 0.000000
vn -0.000000 1.000000 -0.000000
vn -0.000000 1.000000 0.000000
vn 0.000000 1.000000 0.000000
vn 0.000000 1.000000 0.000000
vn 0.000000 1.000000 0.000000
vn -0.809017 0.000000 0.587785
vn -0.309017 -0.000000 0.951057
vn -0.809017 -0.000000 0.587785
vn -0.309017 -0.000000 0.951057
vn 0.309017 -0.000000 0.951057
vn 0.309017 0.000000 0.951056
vn 0.809017 0.000000 0.587785
vn 0.809017 0.000000 0.587785
vn 1.000000 -0.000000 -0.000000
vn 1.000000 0.000000 -0.000000
vn 0.809017 0.000000 -0.587785
vn 0.809017 -0.000000 -0.587785
vn 0.309017 -0.000000 -0.951057
vn 0.309017 -0.000000 -0.951057
vn -0.309017 -0.000000 -0.951057
vn -0.309017 -0.000000 -0.951057
vn -0.809017 -0.000000 -0.587785
vn -0.809017 0.000000 -0.587785
vn -1.000000 0.000000 0.000000
vn -1.000000 0.000000 0.000000
s 1
g pCylinder1
usemtl initialShadingGroup
f 1/1/1 2/2/2 11/11/3
f 11/11/3 2/2/2 12/12/4
f 2/2/2 3/3/5 12/12/4
f 12/12/4 3/3/5 13/13/6
f 3/3/5 4/4/7 13/13/6
f 13/13/6 4/4/7 14/14/8
f 4/4/7 5/5/9 14/14/8
f 14/14/8 5/5/9 15/15/10
f 5/5/9 6/6/11 15/15/10
f 15/15/10 6/6/11 16/16/12
f 6/6/11 7/7/13 16/16/12
f 16/16/12 7/7/13 17/17/14
f 7/7/13 8/8/15 17/17/14
f 17/17/14 8/8/15 18/18/16
f 8/8/15 9/9/17 18/18/16
f 18/18/16 9/9/17 19/19/18
f 9/9/17 10/10/19 19/19/18
f 19/19/18 10/10/19 20/20/20
f 10/10/19 1/1/1 20/20/20
f 20/20/20 1/1/1 11/11/3
s 2
f 11/21/21 12/22/22 21/32/23
f 21/32/23 12/22/22 22/33/24
s 3
f 12/22/25 13/23/26 22/33/27
f 22/33/27 13/23/26 23/34/28
s 4
f 13/23/29 14/24/30 23/34/31
f 23/34/31 14/24/30 24/35/32
s 5
f 14/24/33 15/25/34 24/35/35
f 24/35/35 15/25/34 25/36/36
s 6
f 15/25/37 16/26/38 25/36/39
f 25/36/39 16/26/38 26/37/40
s 7
f 16/26/41 17/27/42 26/37/43
f 26/37/43 17/27/42 27/38/44
s 8
f 17/27/45 18/28/46 27/38/47
f 27/38/47 18/28/46 28/39/48
s 9
f 18/28/49 19/29/50 28/39/51
f 28/39/51 19/29/50 29/40/52
s 10
f 19/29/53 20/30/54 29/40/55
f 29/40/55 20/30/54 30/41/56
s 11
f 20/30/57 11/31/58 30/41/59
f 30/41/59 11/31/58 21/42/60
s 12
f 21/51/61 22/50/62 31/61/63
f 31/61/63 22/50/62 32/60/64
f 22/50/62 23/49/65 32/60/64
f 32/60/64 23/49/65 33/59/66
f 23/49/65 24/48/67 33/59/66
f 33/59/66 24/48/67 34/58/68
f 24/48/67 25/47/69 34/58/68
f 34/58/68 25/47/69 35/57/70
f 25/47/69 26/46/71 35/57/70
f 35/57/70 26/46/71 36/56/72
f 26/46/71 27/45/73 36/56/72
f 36/56/72 27/45/73 37/55/74
f 27/45/73 28/44/75 37/55/74
f 37/55/74 28/44/75 38/54/76
f 28/44/75 29/43/77 38/54/76
f 38/54/76 29/43/77 39/53/78
f 29/43/77 30/52/79 39/53/78
f 39/53/78 30/52/79 40/62/80
f 30/52/79 21/51/61 40/62/80
f 40/62/80 21/51/61 31/61/63
s 1
f 2/2/2 1/1/1 41/63/81
f 3/3/5 2/2/2 41/63/81
f 4/4/7 3/3/5 41/63/81
f 5/5/9 4/4/7 41/63/81
f 6/6/11 5/5/9 41/63/81
f 7/7/13 6/6/11 41/63/81
f 8/8/15 7/7/13 41/63/81
f 9/9/17 8/8/15 41/63/81
f 10/10/19 9/9/17 41/63/81
f 1/1/1 10/10/19 41/63/81
s 13
f 42/65/82 43/66/83 44/64/84
f 43/66/83 45/67/85 44/64/84
f 45/67/85 46/68/86 44/64/84
f 46/68/86 47/69/87 44/64/84
f 47/69/87 48/70/88 44/64/84
f 48/70/88 49/71/89 44/64/84
f 49/71/89 50/72/90 44/64/84
f 50/72/90 51/73/91 44/64/84
f 51/73/91 52/74/92 44/64/84
f 52/74/92 42/65/82 44/64/84
s 14
f 31/61/93 32/60/94 42/65/95
f 42/65/95 32/60/94 43/66/96
f 32/60/94 33/59/97 43/66/96
f 43/66/96 33/59/97 45/67/98
f 33/59/97 34/58/99 45/67/98
f 45/67/98 34/58/99 46/68/100
f 34/58/99 35/57/101 46/68/100
f 46/68/100 35/57/101 47/69/102
f 35/57/101 36/56/103 47/69/102
f 47/69/102 36/56/103 48/70/104
f 36/56/103 37/55/105 48/70/104
f 48/70/104 37/55/105 49/71/106
f 37/55/105 38/54/107 49/71/106
f 49/71/106 38/54/107 50/72/108
f 38/54/107 39/53/109 50/72/108
f 50/72/108 39/53/109 51/73/110
f 39/53/109 40/62/111 51/73/110
f 51/73/110 40/62/111 52/74/112
f 40/62/111 31/61/93 52/74/112
f 52/74/112 31/61/93 42/65/95
g default
v 1.213526 -2.500000 -0.881678
v 0.463525 -2.500000 -1.426585
v -0.463526 -2.500000 -1.426585
v -1.213526 -2.500000 -0.881678
v -1.500000 -2.500000 0.000000
v -1.213526 -2.500000 0.881678
v -0.463525 -2.500000 1.426585
v 0.463526 -2.500000 1.426585
v 1.213526 -2.500000 0.881678
v 1.500000 -2.500000 0.000000
v 2.427051 -2.500000 -1.763356
v 0.927051 -2.500000 -2.853170
v -0.927051 -2.500000 -2.853170
v -2.427052 -2.500000 -1.763356
v -3.000000 -2.500000 0.000000
v -2.427051 -2.500000 1.763356
v -0.927051 -2.500000 2.853170
v 0.927051 -2.500000 2.853170
v 2.427051 -2.500000 1.763356
v 3.000000 -2.500000 0.000000
v 2.427051 2.500000 -1.763356
v 0.927051 2.500000 -2.853170
v -0.927051 2.500000 -2.853170
v -2.427052 2.500000 -1.763356
v -3.000000 2.500000 0.000000
v -2.427051 2.500000 1.763356
v -0.927051 2.500000 2.853170
v 0.927051 2.500000 2.853170
v 2.427051 2.500000 1.763356
v 3.000000 2.500000 0.000000
v 2.134059 2.500000 -1.550485
v 0.815138 2.500000 -2.508737
v -0.815138 2.500000 -2.508737
v -2.134059 2.500000 -1.550484
v -2.637842 2.500000 0.000000
v -2.134059 2.500000 1.550485
v -0.815138 2.500000 2.508737
v 0.815138 2.500000 2.508737
v 2.134059 2.500000 1.550484
v 2.637842 2.500000 0.000000
v 0.000000 -2.500000 0.000000
v 2.134059 -1.038655 -1.550485
v 0.815138 -1.038655 -2.508737
v 0.000000 -1.038655 0.000000
v -0.815138 -1.038655 -2.508737
v -2.134059 -1.038655 -1.550484
v -2.637842 -1.038655 0.000000
v -2.134059 -1.038655 1.550485
v -0.815138 -1.038655 2.508737
v 0.815138 -1.038655 2.508737
v 2.134059 -1.038655 1.550484
v 2.637842 -1.038655 0.000000
vt 0.563204 0.110329
vt 0.524142 0.081949
vt 0.475858 0.081949
vt 0.436796 0.110329
vt 0.421875 0.156250
vt 0.436796 0.202171
vt 0.475858 0.230551
vt 0.524142 0.230551
vt 0.563204 0.202171
vt 0.578125 0.156250
vt 0.626409 0.064409
vt 0.548284 0.007647
vt 0.451716 0.007647
vt 0.373591 0.064409
vt 0.343750 0.156250
vt 0.373591 0.248091
vt 0.451716 0.304853
vt 0.548284 0.304853
vt 0.626409 0.248091
vt 0.656250 0.156250
vt 0.375000 0.312500
vt 0.400000 0.312500
vt 0.425000 0.312500
vt 0.450000 0.312500
vt 0.475000 0.312500
vt 0.500000 0.312500
vt 0.525000 0.312500
vt 0.550000 0.312500
vt 0.575000 0.312500
vt 0.600000 0.312500
vt 0.625000 0.312500
vt 0.375000 0.688440
vt 0.400000 0.688440
vt 0.425000 0.688440
vt 0.450000 0.688440
vt 0.475000 0.688440
vt 0.500000 0.688440
vt 0.525000 0.688440
vt 0.550000 0.688440
vt 0.575000 0.688440
vt 0.600000 0.688440
vt 0.625000 0.688440
vt 0.626409 0.751909
vt 0.548284 0.695147
vt 0.451716 0.695147
vt 0.373591 0.751909
vt 0.343750 0.843750
vt 0.373591 0.935591
vt 0.451716 0.992353
vt 0.548284 0.992353
vt 0.626409 0.935591
vt 0.656250 0.843750
vt 0.563204 0.797829
vt 0.524142 0.769449
vt 0.475858 0.769449
vt 0.436796 0.797829
vt 0.421875 0.843750
vt 0.436796 0.889671
vt 0.475858 0.918051
vt 0.524142 0.918051
vt 0.563204 0.889671
vt 0.578125 0.843750
vt 0.500000 0.150000
vt 0.500000 0.837500
vt 0.563204 0.889671
vt 0.524142 0.918051
vt 0.475858 0.918051
vt 0.436796 0.889671
vt 0.421875 0.843750
vt 0.436796 0.797829
vt 0.475858 0.769449
vt 0.524142 0.769449
vt 0.563204 0.797829
vt 0.578125 0.843750
vn 0.000000 -1.000000 -0.000000
vn 0.000000 -1.000000 -0.000000
vn 0.000000 -1.000000 0.000000
vn 0.000000 -1.000000 0.000000
vn 0.000000 -1.000000 0.000000
vn 0.000000 -1.000000 0.000000
vn 0.000000 -1.000000 0.000000
vn 0.000000 -1.000000 0.000000
vn 0.000000 -1.000000 -0.000000
vn 0.000000 -1.000000 0.000000
vn 0.000000 -1.000000 -0.000000
vn 0.000000 -1.000000 0.000000
vn 0.000000 -1.000000 0.000000
vn 0.000000 -1.000000 0.000000
vn 0.000000 -1.000000 0.000000
vn 0.000000 -1.000000 0.000000
vn 0.000000 -1.000000 0.000000
vn 0.000000 -1.000000 0.000000
vn 0.000000 -1.000000 0.000000
vn 0.000000 -1.000000 0.000000
vn 0.587785 0.000000 -0.809017
vn 0.587785 0.000000 -0.809017
vn 0.587785 0.000000 -0.809017
vn 0.587785 0.000000 -0.809017
vn -0.000000 0.000000 -1.000000
vn -0.000000 0.000000 -1.000000
vn -0.000000 0.000000 -1.000000
vn 0.000000 0.000000 -1.000000
vn -0.587785 0.000000 -0.809017
vn -0.587785 0.000000 -0.809017
vn -0.587785 0.000000 -0.809017
vn -0.587785 0.000000 -0.809017
vn -0.951057 0.000000 -0.309017
vn -0.951057 0.000000 -0.309017
vn -0.951057 0.000000 -0.309017
vn -0.951057 0.000000 -0.309017
vn -0.951057 0.000000 0.309017
vn -0.951056 0.000000 0.309017
vn -0.951056 0.000000 0.309017
vn -0.951057 0.000000 0.309017
vn -0.587785 0.000000 0.809017
vn -0.587785 0.000000 0.809017
vn -0.587785 0.000000 0.809017
vn -0.587785 0.000000 0.809017
vn 0.000000 0.000000 1.000000
vn 0.000000 0.000000 1.000000
vn 0.000000 0.000000 1.000000
vn 0.000000 0.000000 1.000000
vn 0.587785 0.000000 0.809017
vn 0.587785 0.000000 0.809017
vn 0.587785 0.000000 0.809017
vn 0.587785 0.000000 0.809017
vn 0.951057 0.000000 0.309017
vn 0.951057 0.000000 0.309017
vn 0.951057 0.000000 0.309017
vn 0.951057 0.000000 0.309017
vn 0.951057 0.000000 -0.309017
vn 0.951057 0.000000 -0.309017
vn 0.951057 0.000000 -0.309017
vn 0.951057 0.000000 -0.309017
vn 0.000000 1.000000 -0.000000
vn 0.000000 1.000000 0.000000
vn 0.000000 1.000000 -0.000000
vn 0.000000 1.000000 0.000000
vn 0.000000 1.000000 -0.000000
vn 0.000000 1.000000 -0.000000
vn 0.000000 1.000000 0.000000
vn 0.000000 1.000000 0.000000
vn 0.000000 1.000000 0.000000
vn 0.000000 1.000000 0.000000
vn 0.000000 1.000000 0.000000
vn 0.000000 1.000000 0.000000
vn 0.000000 1.000000 0.000000
vn 0.000000 1.000000 0.000000
vn 0.000000 1.000000 -0.000000
vn 0.000000 1.000000 -0.000000
vn 0.000000 1.000000 0.000000
vn 0.000000 1.000000 0.000000
vn 0.000000 1.000000 0.000000
vn 0.000000 1.000000 0.000000
vn 0.000000 -1.000000 -0.000000
vn 0.000000 1.000000 0.000000
vn 0.000000 1.000000 0.000000
vn -0.000000 1.000000 0.000000
vn 0.000000 1.000000 0.000000
vn -0.000000 1.000000 0.000000
vn -0.000000 1.000000 0.000000
vn -0.000000 1.000000 -0.000000
vn -0.000000 1.000000 0.000000
vn 0.000000 1.000000 0.000000
vn 0.000000 1.000000 0.000000
vn 0.000000 1.000000 0.000000
vn -0.809017 0.000000 0.587785
vn -0.309017 -0.000000 0.951057
vn -0.809017 -0.000000 0.587785
vn -0.309017 -0.000000 0.951057
vn 0.309017 -0.000000 0.951057
vn 0.309017 0.000000 0.951056
vn 0.809017 0.000000 0.587785
vn 0.809017 0.000000 0.587785
vn 1.000000 -0.000000 -0.000000
vn 1.000000 0.000000 -0.000000
vn 0.809017 0.000000 -0.587785
vn 0.809017 -0.000000 -0.587785
vn 0.309017 -0.000000 -0.951057
vn 0.309017 -0.000000 -0.951057
vn -0.309017 -0.000000 -0.951057
vn -0.309017 -0.000000 -0.951057
vn -0.809017 -0.000000 -0.587785
vn -0.809017 0.000000 -0.587785
vn -1.000000 0.000000 0.000000
vn -1.000000 0.000000 0.000000
s 1
g pCylinder1
f 53/75/113 54/76/114 63/85/115
f 63/85/115 54/76/114 64/86/116
f 54/76/114 55/77/117 64/86/116
f 64/86/116 55/77/117 65/87/118
f 55/77/117 56/78/119 65/87/118
f 65/87/118 56/78/119 66/88/120
f 56/78/119 57/79/121 66/88/120
f 66/88/120 57/79/121 67/89/122
f 57/79/121 58/80/123 67/89/122
f 67/89/122 58/80/123 68/90/124
f 58/80/123 59/81/125 68/90/124
f 68/90/124 59/81/125 69/91/126
f 59/81/125 60/82/127 69/91/126
f 69/91/126 60/82/127 70/92/128
f 60/82/127 61/83/129 70/92/128
f 70/92/128 61/83/129 71/93/130
f 61/83/129 62/84/131 71/93/130
f 71/93/130 62/84/131 72/94/132
f 62/84/131 53/75/113 72/94/132
f 72/94/132 53/75/113 63/85/115
s 2
f 63/95/133 64/96/134 73/106/135
f 73/106/135 64/96/134 74/107/136
s 3
f 64/96/137 65/97/138 74/107/139
f 74/107/139 65/97/138 75/108/140
s 4
f 65/97/141 66/98/142 75/108/143
f 75/108/143 66/98/142 76/109/144
s 5
f 66/98/145 67/99/146 76/109/147
f 76/109/147 67/99/146 77/110/148
s 6
f 67/99/149 68/100/150 77/110/151
f 77/110/151 68/100/150 78/111/152
s 7
f 68/100/153 69/101/154 78/111/155
f 78/111/155 69/101/154 79/112/156
s 8
f 69/101/157 70/102/158 79/112/159
f 79/112/159 70/102/158 80/113/160
s 9
f 70/102/161 71/103/162 80/113/163
f 80/113/163 71/103/162 81/114/164
s 10
f 71/103/165 72/104/166 81/114/167
f 81/114/167 72/104/166 82/115/168
s 11
f 72/104/169 63/105/170 82/115/171
f 82/115/171 63/105/170 73/116/172
s 12
f 73/125/173 74/124/174 83/135/175
f 83/135/175 74/124/174 84/134/176
f 74/124/174 75/123/177 84/134/176
f 84/134/176 75/123/177 85/133/178
f 75/123/177 76/122/179 85/133/178
f 85/133/178 76/122/179 86/132/180
f 76/122/179 77/121/181 86/132/180
f 86/132/180 77/121/181 87/131/182
f 77/121/181 78/120/183 87/131/182
f 87/131/182 78/120/183 88/130/184
f 78/120/183 79/119/185 88/130/184
f 88/130/184 79/119/185 89/129/186
f 79/119/185 80/118/187 89/129/186
f 89/129/186 80/118/187 90/128/188
f 80/118/187 81/117/189 90/128/188
f 90/128/188 81/117/189 91/127/190
f 81/117/189 82/126/191 91/127/190
f 91/127/190 82/126/191 92/136/192
f 82/126/191 73/125/173 92/136/192
f 92/136/192 73/125/173 83/135/175
s 1
f 54/76/114 53/75/113 93/137/193
f 55/77/117 54/76/114 93/137/193
f 56/78/119 55/77/117 93/137/193
f 57/79/121 56/78/119 93/137/193
f 58/80/123 57/79/121 93/137/193
f 59/81/125 58/80/123 93/137/193
f 60/82/127 59/81/125 93/137/193
f 61/83/129 60/82/127 93/137/193
f 62/84/131 61/83/129 93/137/193
f 53/75/113 62/84/131 93/137/193
s 13
f 94/139/194 95/140/195 96/138/196
f 95/140/195 97/141/197 96/138/196
f 97/141/197 98/142/198 96/138/196
f 98/142/198 99/143/199 96/138/196
f 99/143/199 100/144/200 96/138/196
f 100/144/200 101/145/201 96/138/196
f 101/145/201 102/146/202 96/138/196
f 102/146/202 103/147/203 96/138/196
f 103/147/203 104/148/204 96/138/196
f 104/148/204 94/139/194 96/138/196
s 14
f 83/135/205 84/134/206 94/139/207
f 94/139/207 84/134/206 95/140/208
f 84/134/206 85/133/209 95/140/208
f 95/140/208 85/133/209 97/141/210
f 85/133/209 86/132/211 97/141/210
f 97/141/210 86/132/211 98/142/212
f 86/132/211 87/131/213 98/142/212
f 98/142/212 87/131/213 99/143/214
f 87/131/213 88/130/215 99/143/214
f 99/143/214 88/130/215 100/144/216
f 88/130/215 89/129/217 100/144/216
f 100/144/216 89/129/217 101/145/218
f 89/129/217 90/128/219 101/145/218
f 101/145/218 90/128/219 102/146/220
f 90/128/219 91/127/221 102/146/220
f 102/146/220 91/127/221 103/147/222
f 91/127/221 92/136/223 103/147/222
f 103/147/222 92/136/223 104/148/224
f 92/136/223 83/135/205 104/148/224
f 104/148/224 83/135/205 94/139/207
