# This file uses centimeters as units for non-parametric coordinates.

mtllib Ground.mtl
g default
v -12.500000 -0.000000 12.500000
v 12.500000 -0.000000 12.500000
v -12.500000 0.000000 -12.500000
v 12.500000 0.000000 -12.500000
vt -1.022479 -1.022479
vt 2.022479 -1.022479
vt -1.022479 2.022479
vt 2.022479 2.022479
vn 0.000000 1.000000 0.000000
vn 0.000000 1.000000 0.000000
vn 0.000000 1.000000 0.000000
vn 0.000000 1.000000 0.000000
s 1
g GroundMesh
usemtl lambert3SG
f 1/1/1 2/2/2 3/3/3
f 3/3/3 2/2/2 4/4/4
