# This file uses centimeters as units for non-parametric coordinates.

mtllib Cone.mtl
g default
v 1.618034 -2.500000 -1.175571
v 0.618034 -2.500000 -1.902113
v -0.618034 -2.500000 -1.902113
v -1.618034 -2.500000 -1.175570
v -2.000000 -2.500000 0.000000
v -1.618034 -2.500000 1.175571
v -0.618034 -2.500000 1.902113
v 0.618034 -2.500000 1.902113
v 1.618034 -2.500000 1.175570
v 2.000000 -2.500000 0.000000
v 0.000000 2.500000 0.000000
v 1.618034 -2.500000 -1.175571
v 0.618034 -2.500000 -1.902113
v -0.618034 -2.500000 -1.902113
v -1.618034 -2.500000 -1.175570
v -2.000000 -2.500000 0.000000
v -1.618034 -2.500000 1.175571
v -0.618034 -2.500000 1.902113
v 0.618034 -2.500000 1.902113
v 1.618034 -2.500000 1.175570
v 2.000000 -2.500000 0.000000
v 0.000000 2.500000 0.000000
vt 0.702254 0.103054
vt 0.750000 0.250000
vt 0.702254 0.396946
vt 0.577254 0.487764
vt 0.422746 0.487764
vt 0.297746 0.396946
vt 0.250000 0.250000
vt 0.297746 0.103054
vt 0.422746 0.012236
vt 0.577254 0.012236
vt 0.250000 0.500000
vt 0.300000 0.500000
vt 0.500000 1.000000
vt 0.350000 0.500000
vt 0.400000 0.500000
vt 0.450000 0.500000
vt 0.500000 0.500000
vt 0.550000 0.500000
vt 0.600000 0.500000
vt 0.650000 0.500000
vt 0.700000 0.500000
vt 0.750000 0.500000
vt 0.702254 0.103054
vt 0.750000 0.250000
vt 0.702254 0.396946
vt 0.577254 0.487764
vt 0.422746 0.487764
vt 0.297746 0.396946
vt 0.250000 0.250000
vt 0.297746 0.103054
vt 0.422746 0.012236
vt 0.577254 0.012236
vt 0.250000 0.500000
vt 0.300000 0.500000
vt 0.500000 1.000000
vt 0.350000 0.500000
vt 0.400000 0.500000
vt 0.450000 0.500000
vt 0.500000 0.500000
vt 0.550000 0.500000
vt 0.600000 0.500000
vt 0.650000 0.500000
vt 0.700000 0.500000
vt 0.750000 0.500000
vn 0.000000 -1.000000 0.000000
vn 0.000000 -1.000000 0.000000
vn 0.000000 -1.000000 0.000000
vn 0.000000 -1.000000 0.000000
vn 0.000000 -1.000000 0.000000
vn 0.000000 -1.000000 0.000000
vn 0.000000 -1.000000 0.000000
vn 0.000000 -1.000000 0.000000
vn 0.000000 -1.000000 0.000000
vn 0.000000 -1.000000 0.000000
vn 0.549375 0.355563 -0.756150
vn 0.549375 0.355563 -0.756150
vn 0.549375 0.355563 -0.756150
vn -0.000000 0.355563 -0.934652
vn -0.000000 0.355563 -0.934652
vn -0.000000 0.355563 -0.934652
vn -0.549375 0.355563 -0.756150
vn -0.549375 0.355563 -0.756150
vn -0.549375 0.355563 -0.756150
vn -0.888907 0.355563 -0.288823
vn -0.888907 0.355563 -0.288823
vn -0.888907 0.355563 -0.288823
vn -0.888907 0.355563 0.288824
vn -0.888907 0.355563 0.288824
vn -0.888907 0.355563 0.288824
vn -0.549375 0.355563 0.756150
vn -0.549375 0.355563 0.756150
vn -0.549375 0.355563 0.756150
vn 0.000000 0.355563 0.934652
vn 0.000000 0.355563 0.934652
vn 0.000000 0.355563 0.934652
vn 0.549375 0.355563 0.756150
vn 0.549375 0.355563 0.756150
vn 0.549375 0.355563 0.756150
vn 0.888907 0.355563 0.288823
vn 0.888907 0.355563 0.288823
vn 0.888907 0.355563 0.288823
vn 0.888907 0.355563 -0.288823
vn 0.888907 0.355563 -0.288823
vn 0.888907 0.355563 -0.288823
vn 0.000000 -1.000000 0.000000
vn 0.000000 -1.000000 0.000000
vn 0.000000 -1.000000 0.000000
vn 0.000000 -1.000000 0.000000
vn 0.000000 -1.000000 0.000000
vn 0.000000 -1.000000 0.000000
vn 0.000000 -1.000000 0.000000
vn 0.000000 -1.000000 0.000000
vn 0.000000 -1.000000 0.000000
vn 0.000000 -1.000000 0.000000
vn 0.549375 0.355563 -0.756150
vn 0.549375 0.355563 -0.756150
vn 0.549375 0.355563 -0.756150
vn -0.000000 0.355563 -0.934652
vn -0.000000 0.355563 -0.934652
vn -0.000000 0.355563 -0.934652
vn -0.549375 0.355563 -0.756150
vn -0.549375 0.355563 -0.756150
vn -0.549375 0.355563 -0.756150
vn -0.888907 0.355563 -0.288823
vn -0.888907 0.355563 -0.288823
vn -0.888907 0.355563 -0.288823
vn -0.888907 0.355563 0.288824
vn -0.888907 0.355563 0.288824
vn -0.888907 0.355563 0.288824
vn -0.549375 0.355563 0.756150
vn -0.549375 0.355563 0.756150
vn -0.549375 0.355563 0.756150
vn 0.000000 0.355563 0.934652
vn 0.000000 0.355563 0.934652
vn 0.000000 0.355563 0.934652
vn 0.549375 0.355563 0.756150
vn 0.549375 0.355563 0.756150
vn 0.549375 0.355563 0.756150
vn 0.888907 0.355563 0.288823
vn 0.888907 0.355563 0.288823
vn 0.888907 0.355563 0.288823
vn 0.888907 0.355563 -0.288823
vn 0.888907 0.355563 -0.288823
vn 0.888907 0.355563 -0.288823
s 1
g Cone:pCone1
usemtl Cone:initialShadingGroup
f 1/1/1 10/2/2 2/10/3
f 10/2/2 9/3/4 2/10/3
f 9/3/4 8/4/5 2/10/3
f 8/4/5 7/5/6 2/10/3
f 7/5/6 6/6/7 2/10/3
f 6/6/7 5/7/8 2/10/3
f 5/7/8 4/8/9 2/10/3
f 4/8/9 3/9/10 2/10/3
s off
f 1/11/11 2/12/12 11/13/13
f 2/12/14 3/14/15 11/13/16
f 3/14/17 4/15/18 11/13/19
f 4/15/20 5/16/21 11/13/22
f 5/16/23 6/17/24 11/13/25
f 6/17/26 7/18/27 11/13/28
f 7/18/29 8/19/30 11/13/31
f 8/19/32 9/20/33 11/13/34
f 9/20/35 10/21/36 11/13/37
f 10/21/38 1/22/39 11/13/40
s 2
f 12/23/41 21/24/42 13/32/43
f 21/24/42 20/25/44 13/32/43
f 20/25/44 19/26/45 13/32/43
f 19/26/45 18/27/46 13/32/43
f 18/27/46 17/28/47 13/32/43
f 17/28/47 16/29/48 13/32/43
f 16/29/48 15/30/49 13/32/43
f 15/30/49 14/31/50 13/32/43
s off
f 12/33/51 13/34/52 22/35/53
f 13/34/54 14/36/55 22/35/56
f 14/36/57 15/37/58 22/35/59
f 15/37/60 16/38/61 22/35/62
f 16/38/63 17/39/64 22/35/65
f 17/39/66 18/40/67 22/35/68
f 18/40/69 19/41/70 22/35/71
f 19/41/72 20/42/73 22/35/74
f 20/42/75 21/43/76 22/35/77
f 21/43/78 12/44/79 22/35/80
g default
v 1.618034 -2.500000 -1.175571
v 0.618034 -2.500000 -1.902113
v -0.618034 -2.500000 -1.902113
v -1.618034 -2.500000 -1.175570
v -2.000000 -2.500000 0.000000
v -1.618034 -2.500000 1.175571
v -0.618034 -2.500000 1.902113
v 0.618034 -2.500000 1.902113
v 1.618034 -2.500000 1.175570
v 2.000000 -2.500000 0.000000
v 0.000000 2.500000 0.000000
v 1.618034 -2.500000 -1.175571
v 0.618034 -2.500000 -1.902113
v -0.618034 -2.500000 -1.902113
v -1.618034 -2.500000 -1.175570
v -2.000000 -2.500000 0.000000
v -1.618034 -2.500000 1.175571
v -0.618034 -2.500000 1.902113
v 0.618034 -2.500000 1.902113
v 1.618034 -2.500000 1.175570
v 2.000000 -2.500000 0.000000
v 0.000000 2.500000 0.000000
vt 0.702254 0.103054
vt 0.750000 0.250000
vt 0.702254 0.396946
vt 0.577254 0.487764
vt 0.422746 0.487764
vt 0.297746 0.396946
vt 0.250000 0.250000
vt 0.297746 0.103054
vt 0.422746 0.012236
vt 0.577254 0.012236
vt 0.250000 0.500000
vt 0.300000 0.500000
vt 0.500000 1.000000
vt 0.350000 0.500000
vt 0.400000 0.500000
vt 0.450000 0.500000
vt 0.500000 0.500000
vt 0.550000 0.500000
vt 0.600000 0.500000
vt 0.650000 0.500000
vt 0.700000 0.500000
vt 0.750000 0.500000
vt 0.702254 0.103054
vt 0.750000 0.250000
vt 0.702254 0.396946
vt 0.577254 0.487764
vt 0.422746 0.487764
vt 0.297746 0.396946
vt 0.250000 0.250000
vt 0.297746 0.103054
vt 0.422746 0.012236
vt 0.577254 0.012236
vt 0.250000 0.500000
vt 0.300000 0.500000
vt 0.500000 1.000000
vt 0.350000 0.500000
vt 0.400000 0.500000
vt 0.450000 0.500000
vt 0.500000 0.500000
vt 0.550000 0.500000
vt 0.600000 0.500000
vt 0.650000 0.500000
vt 0.700000 0.500000
vt 0.750000 0.500000
vn 0.000000 -1.000000 0.000000
vn 0.000000 -1.000000 0.000000
vn 0.000000 -1.000000 0.000000
vn 0.000000 -1.000000 0.000000
vn 0.000000 -1.000000 0.000000
vn 0.000000 -1.000000 0.000000
vn 0.000000 -1.000000 0.000000
vn 0.000000 -1.000000 0.000000
vn 0.000000 -1.000000 0.000000
vn 0.000000 -1.000000 0.000000
vn 0.549375 0.355563 -0.756150
vn 0.549375 0.355563 -0.756150
vn 0.549375 0.355563 -0.756150
vn -0.000000 0.355563 -0.934652
vn -0.000000 0.355563 -0.934652
vn -0.000000 0.355563 -0.934652
vn -0.549375 0.355563 -0.756150
vn -0.549375 0.355563 -0.756150
vn -0.549375 0.355563 -0.756150
vn -0.888907 0.355563 -0.288823
vn -0.888907 0.355563 -0.288823
vn -0.888907 0.355563 -0.288823
vn -0.888907 0.355563 0.288824
vn -0.888907 0.355563 0.288824
vn -0.888907 0.355563 0.288824
vn -0.549375 0.355563 0.756150
vn -0.549375 0.355563 0.756150
vn -0.549375 0.355563 0.756150
vn 0.000000 0.355563 0.934652
vn 0.000000 0.355563 0.934652
vn 0.000000 0.355563 0.934652
vn 0.549375 0.355563 0.756150
vn 0.549375 0.355563 0.756150
vn 0.549375 0.355563 0.756150
vn 0.888907 0.355563 0.288823
vn 0.888907 0.355563 0.288823
vn 0.888907 0.355563 0.288823
vn 0.888907 0.355563 -0.288823
vn 0.888907 0.355563 -0.288823
vn 0.888907 0.355563 -0.288823
vn 0.000000 -1.000000 0.000000
vn 0.000000 -1.000000 0.000000
vn 0.000000 -1.000000 0.000000
vn 0.000000 -1.000000 0.000000
vn 0.000000 -1.000000 0.000000
vn 0.000000 -1.000000 0.000000
vn 0.000000 -1.000000 0.000000
vn 0.000000 -1.000000 0.000000
vn 0.000000 -1.000000 0.000000
vn 0.000000 -1.000000 0.000000
vn 0.549375 0.355563 -0.756150
vn 0.549375 0.355563 -0.756150
vn 0.549375 0.355563 -0.756150
vn -0.000000 0.355563 -0.934652
vn -0.000000 0.355563 -0.934652
vn -0.000000 0.355563 -0.934652
vn -0.549375 0.355563 -0.756150
vn -0.549375 0.355563 -0.756150
vn -0.549375 0.355563 -0.756150
vn -0.888907 0.355563 -0.288823
vn -0.888907 0.355563 -0.288823
vn -0.888907 0.355563 -0.288823
vn -0.888907 0.355563 0.288824
vn -0.888907 0.355563 0.288824
vn -0.888907 0.355563 0.288824
vn -0.549375 0.355563 0.756150
vn -0.549375 0.355563 0.756150
vn -0.549375 0.355563 0.756150
vn 0.000000 0.355563 0.934652
vn 0.000000 0.355563 0.934652
vn 0.000000 0.355563 0.934652
vn 0.549375 0.355563 0.756150
vn 0.549375 0.355563 0.756150
vn 0.549375 0.355563 0.756150
vn 0.888907 0.355563 0.288823
vn 0.888907 0.355563 0.288823
vn 0.888907 0.355563 0.288823
vn 0.888907 0.355563 -0.288823
vn 0.888907 0.355563 -0.288823
vn 0.888907 0.355563 -0.288823
s 1
g Cone:pCone1
f 23/45/81 32/46/82 24/54/83
f 32/46/82 31/47/84 24/54/83
f 31/47/84 30/48/85 24/54/83
f 30/48/85 29/49/86 24/54/83
f 29/49/86 28/50/87 24/54/83
f 28/50/87 27/51/88 24/54/83
f 27/51/88 26/52/89 24/54/83
f 26/52/89 25/53/90 24/54/83
s off
f 23/55/91 24/56/92 33/57/93
f 24/56/94 25/58/95 33/57/96
f 25/58/97 26/59/98 33/57/99
f 26/59/100 27/60/101 33/57/102
f 27/60/103 28/61/104 33/57/105
f 28/61/106 29/62/107 33/57/108
f 29/62/109 30/63/110 33/57/111
f 30/63/112 31/64/113 33/57/114
f 31/64/115 32/65/116 33/57/117
f 32/65/118 23/66/119 33/57/120
s 2
f 34/67/121 43/68/122 35/76/123
f 43/68/122 42/69/124 35/76/123
f 42/69/124 41/70/125 35/76/123
f 41/70/125 40/71/126 35/76/123
f 40/71/126 39/72/127 35/76/123
f 39/72/127 38/73/128 35/76/123
f 38/73/128 37/74/129 35/76/123
f 37/74/129 36/75/130 35/76/123
s off
f 34/77/131 35/78/132 44/79/133
f 35/78/134 36/80/135 44/79/136
f 36/80/137 37/81/138 44/79/139
f 37/81/140 38/82/141 44/79/142
f 38/82/143 39/83/144 44/79/145
f 39/83/146 40/84/147 44/79/148
f 40/84/149 41/85/150 44/79/151
f 41/85/152 42/86/153 44/79/154
f 42/86/155 43/87/156 44/79/157
f 43/87/158 34/88/159 44/79/160
